<svg viewBox="0 0 725 725" fill="none" xmlns="http://www.w3.org/2000/svg">
<path d="M491.595 68.3851C536.831 94.5697 581.816 120.622 626.774 146.721C635.765 151.941 644.922 156.938 653.532 162.737C668.902 173.09 677.556 187.947 680.544 206.126C681.088 209.434 681.213 212.842 681.214 216.205C681.248 313.861 681.356 411.517 681.161 509.173C681.112 533.762 669.921 552.781 648.817 565.179C601.978 592.694 554.849 619.716 507.848 646.957C470.405 668.659 433.084 690.576 395.5 712.032C373.232 724.745 350.595 724.307 328.385 711.537C296.949 693.464 265.616 675.213 234.249 657.019C198.498 636.282 162.757 615.527 127.013 594.776C109.703 584.728 92.2818 574.865 75.1224 564.566C56.7611 553.546 46.5885 537.03 43.9375 515.842C43.7125 514.043 43.7435 512.206 43.7434 510.387C43.7349 411.82 43.746 313.252 43.7246 214.685C43.7215 200.211 48.5843 187.498 57.1562 176.009C63.2835 167.798 71.4151 162.104 80.1465 157.055C119.974 134.025 159.776 110.952 199.577 87.8792C242.64 62.9156 285.706 37.9578 328.741 12.9458C340.544 6.08586 353.235 2.93335 366.805 3.79549C377.048 4.44627 386.691 7.4722 395.6 12.6391C427.304 31.0258 458.995 49.4329 490.69 67.8344C490.913 67.9641 491.119 68.1237 491.595 68.3851ZM127.777 538.035C128.883 538.72 129.972 539.434 131.097 540.086C174.838 565.431 218.586 590.766 262.326 616.113C293.134 633.967 323.955 651.798 354.716 669.734C360.135 672.893 365.138 672.677 370.453 669.545C384.222 661.428 398.093 653.483 411.919 645.461C439.347 629.547 466.768 613.622 494.198 597.711C527.698 578.28 561.204 558.86 594.708 539.435C603.927 534.091 613.155 528.761 622.366 523.402C628.426 519.875 631.613 515.047 631.602 507.564C631.45 410.822 631.474 314.079 631.555 217.337C631.561 210.032 628.49 204.891 622.363 201.359C586.671 180.785 550.963 160.238 515.265 139.674C466.841 111.779 418.407 83.9002 370.018 55.9444C364.727 52.8878 359.794 52.9774 354.609 56.0609C346.232 61.0429 337.764 65.8731 329.319 70.7412C298.807 88.3298 268.292 105.911 237.773 123.488C192.84 149.368 147.916 175.265 102.951 201.09C96.3538 204.88 93.1572 210.233 93.17 217.93C93.2601 272.356 93.2179 326.781 93.2179 381.207C93.2179 423.524 93.2484 465.84 93.1762 508.157C93.1679 513.029 94.5882 517.123 98.2857 520.251C100.256 521.918 102.44 523.373 104.666 524.688C112.162 529.118 119.72 533.442 127.777 538.035Z" fill="#0B7D4E"/>
<path d="M246.213 206.601C239.573 206.601 233.322 206.666 227.073 206.588C217.327 206.466 207.579 206.358 197.838 206.04C187.559 205.705 178.776 197.488 177.51 187.302C176.192 176.714 182.353 167.11 192.423 164.208C193.895 163.784 195.497 163.662 197.039 163.657C209.669 163.614 222.299 163.598 234.928 163.641C248.204 163.685 261.479 163.775 274.754 163.894C301.55 164.135 328.346 164.395 355.142 164.676C368.533 164.816 381.924 165.052 395.315 165.185C408.199 165.313 421.085 165.317 433.968 165.463C453.213 165.681 472.475 165.55 491.697 166.36C509.572 167.114 526.081 172.82 540.803 183.156C561.369 197.595 574.681 217.056 579.899 241.666C586.13 271.054 579.593 297.57 560.634 320.891C557.619 324.599 553.916 327.747 550.539 331.162C550.096 331.609 549.696 332.1 549.526 332.291C552.307 335.285 554.929 338.135 557.581 340.956C570.575 354.781 578.683 371.052 582.095 389.702C583.481 397.281 583.989 404.935 583.523 412.591C582.824 424.072 580.27 435.156 575.48 445.69C571.02 455.497 565.164 464.385 557.612 472.018C545.077 484.685 530.112 493.223 512.677 497.249C505.311 498.95 497.845 499.685 490.278 499.591C482.597 499.495 474.914 499.628 467.232 499.561C440.436 499.328 413.64 499.065 386.844 498.784C373.582 498.645 360.322 498.406 347.061 498.276C333.656 498.145 320.25 498.128 306.845 498.002C281.742 497.765 256.638 497.476 231.535 497.236C227.004 497.192 226.52 497.735 226.552 502.065C226.646 514.95 226.693 527.835 226.834 540.719C226.879 544.867 227.417 549.022 227.279 553.159C226.993 561.708 223.422 568.454 215.501 572.356C202.334 578.844 186.581 570.37 184.638 555.785C184.415 554.116 184.379 552.413 184.374 550.725C184.349 541.871 184.43 533.017 184.343 524.164C184.26 515.719 183.87 507.275 183.881 498.832C183.895 488.056 187.348 478.418 194.322 470.152C203.142 459.698 214.53 454.416 228.122 454.309C244.52 454.179 260.921 454.388 277.321 454.527C290.452 454.638 303.582 454.899 316.713 455.028C330.117 455.159 343.523 455.175 356.928 455.304C370.58 455.436 384.231 455.663 397.883 455.813C408.423 455.93 418.964 455.978 429.505 456.082C445.76 456.244 462.016 456.419 478.271 456.607C482.432 456.655 486.593 456.853 490.754 456.848C520.327 456.814 543.002 432.106 540.749 402.55C539.761 389.574 534.912 378.273 525.837 369.093C516.048 359.191 503.958 353.787 489.922 353.516C472.368 353.177 454.808 353.091 437.251 352.963C419.289 352.832 401.326 352.823 383.364 352.683C369.842 352.577 356.322 352.316 342.8 352.182C329.916 352.054 317.031 352.041 304.147 351.903C292.969 351.784 281.79 351.64 270.615 351.359C261.841 351.138 253.843 345.451 250.986 337.678C247.783 328.964 249.769 319.983 256.263 314.086C261.525 309.308 267.889 308.086 274.733 308.527C276.41 308.635 278.083 308.92 279.759 308.926C289.915 308.964 300.071 308.913 310.227 308.952C324.283 309.007 338.34 309.08 352.395 309.212C365.917 309.339 379.438 309.585 392.959 309.716C406.364 309.846 419.77 309.845 433.175 309.995C452.159 310.207 471.143 310.683 490.127 310.722C515.343 310.774 537.05 290.761 539.196 265.83C541.516 238.869 523.186 214.7 496.646 209.86C493.473 209.281 490.206 209.05 486.976 208.984C480.469 208.852 473.956 208.995 467.447 208.938C440.129 208.698 412.812 208.441 385.496 208.159C372.234 208.022 358.974 207.781 345.713 207.651C332.308 207.521 318.902 207.52 305.498 207.372C285.866 207.157 266.235 206.862 246.213 206.601Z" fill="#0B7D4E"/>
<path d="M369.652 280.141C344.163 279.885 319.058 279.702 293.954 279.515C282.764 279.432 271.568 279.049 260.387 279.322C241.691 279.777 227.763 288.67 218.319 304.595C213.282 313.089 211.182 322.493 212.038 332.299C213.444 348.412 220.562 361.527 233.757 371.132C243.231 378.028 253.95 380.993 265.562 381.079C289.105 381.252 312.647 381.435 336.189 381.598C351.024 381.7 365.859 381.734 380.693 381.868C394.342 381.991 407.991 382.23 421.64 382.374C433.22 382.496 444.801 382.511 456.38 382.656C463.911 382.75 471.445 382.9 478.97 383.194C488.363 383.562 496.881 391.426 498.487 401.008C500.338 412.053 493.775 422.293 482.962 425.099C481.477 425.485 479.882 425.591 478.339 425.587C455.823 425.533 433.308 425.481 410.793 425.337C397.274 425.25 383.756 424.985 370.237 424.834C359.829 424.718 349.42 424.669 339.011 424.565C322.759 424.403 306.507 424.221 290.254 424.046C282.449 423.961 274.644 423.811 266.839 423.799C242.663 423.76 221.09 416.396 202.685 400.599C184.736 385.194 173.922 365.668 170.354 342.252C169.614 337.397 168.96 332.444 169.095 327.559C169.415 315.962 171.363 304.643 175.774 293.776C180.491 282.157 187.163 271.828 196.02 263.074C209.281 249.968 225.133 241.469 243.563 238.01C251.51 236.518 259.498 236.218 267.588 236.466C278.252 236.793 288.935 236.476 299.609 236.56C327.572 236.779 355.535 237.05 383.497 237.333C396.756 237.467 410.013 237.709 423.272 237.84C436.414 237.97 449.557 237.981 462.699 238.127C467.887 238.185 473.096 238.221 478.256 238.701C488.414 239.647 496.876 248.651 497.18 258.723C497.46 268.003 493.794 274.803 485.603 279.115C482.801 280.59 479.762 281.119 476.569 281.1C455.356 280.971 434.142 280.96 412.929 280.803C398.631 280.697 384.334 280.415 369.652 280.141Z" fill="#0B7D4E"/>
</svg>
